<?xml version="1.0" encoding="utf-8"?>
<!-- Generator: Adobe Illustrator 23.1.0, SVG Export Plug-In . SVG Version: 6.00 Build 0)  -->
<svg version="1.1" xmlns="http://www.w3.org/2000/svg" xmlns:xlink="http://www.w3.org/1999/xlink" x="0px" y="0px"
	 viewBox="0 0 750 367.3" style="enable-background:new 0 0 750 367.3;" xml:space="preserve">
<style type="text/css">
	.st0{fill:#2F1829;}
	.st1{fill:url(#SVGID_1_);}
	.st2{opacity:0.45;fill:url(#SVGID_2_);}
	.st3{fill:url(#SVGID_3_);}
	.st4{fill:url(#SVGID_4_);}
	.st5{opacity:0.25;fill:#FFFFFF;}
	.st6{fill:url(#SVGID_5_);}
	.st7{fill:url(#SVGID_6_);}
	.st8{fill:#F3475C;}
	.st9{opacity:0.25;}
	.st10{fill:#FFFFFF;}
	.st11{fill:#FFCA51;}
	.st12{fill:#982245;}
	.st13{fill:url(#SVGID_7_);}
	.st14{fill:url(#SVGID_8_);}
	.st15{fill:url(#SVGID_9_);}
	.st16{fill:url(#SVGID_10_);}
	.st17{fill:url(#SVGID_11_);}
	.st18{fill:url(#SVGID_12_);}
	.st19{fill:url(#SVGID_13_);}
	.st20{fill:url(#SVGID_14_);}
	.st21{fill:#2F172B;}
	.st22{fill:url(#SVGID_15_);}
	
		.st23{opacity:0.25;fill:none;stroke:#FFFFFF;stroke-width:0.4635;stroke-linecap:round;stroke-linejoin:round;stroke-miterlimit:10;}
	.st24{fill:none;stroke:#FFFFFF;stroke-width:0.4635;stroke-linecap:round;stroke-linejoin:round;}
	.st25{fill:none;stroke:#FFFFFF;stroke-width:0.4635;stroke-linecap:round;stroke-linejoin:round;stroke-dasharray:1.3851,1.3851;}
	
		.st26{opacity:0.25;fill:none;stroke:#FFFFFF;stroke-width:0.4635;stroke-linecap:round;stroke-linejoin:round;stroke-miterlimit:10;stroke-dasharray:1.3906;}
	.st27{fill:#4C3146;}
	.st28{fill:#1F3247;}
	.st29{fill:url(#SVGID_16_);}
	.st30{fill:#122230;}
	.st31{fill:url(#SVGID_17_);}
	.st32{fill:url(#SVGID_18_);}
	.st33{fill:#F5B539;}
	.st34{fill:url(#SVGID_19_);}
	.st35{opacity:0.25;fill:none;stroke:#FFFFFF;stroke-width:0.4635;stroke-miterlimit:10;}
	.st36{fill:none;stroke:#1F3247;stroke-width:0.9271;stroke-miterlimit:10;}
	.st37{fill:#FFADAE;}
</style>
<g id="BACKGROUND">
</g>
<g id="OBJECTS">
	<g>
		<g>
			<path class="st0" d="M158.5,275.7c0,0,9.8,17.4,80.5,25.3c70.7,7.9,106.4,34.4,151.3,42.3c44.9,7.9,100.5-44.3,148.7-36.3
				c48.2,7.9,106.4-22.3,111-31.3H158.5z"/>
			<linearGradient id="SVGID_1_" gradientUnits="userSpaceOnUse" x1="384.7846" y1="271.0153" x2="387.4283" y2="67.4589">
				<stop  offset="0" style="stop-color:#E8D197"/>
				<stop  offset="1" style="stop-color:#FEF5DA"/>
			</linearGradient>
			<path class="st1" d="M669.1,272.2h-10.5l-460.6,0.1c0,0-4.7-3.7-11.9-10c-3.1-2.7-6.7-5.9-10.6-9.5c-1.4-1.3-2.9-2.7-4.4-4.1
				c-13.7-12.9-30.3-30-43.8-48.1c-14.2-19.1-25-39.5-25.3-57.5c0-0.4,0-0.8,0-1.2c0.2-17.4,3.6-36.3,12.1-53.7
				c5-10.2,11.6-19.9,20.4-28.7c22.8-22.8,59.8-38.7,117.2-38.2c66.9,0.5,136.3,25.5,199,60c0,0,0,0,0,0
				c13.1,7.2,25.9,14.9,38.4,22.8c9.2,5.9,18.2,11.9,26.9,18c24.3,17,46.8,34.8,66.7,52.2C627.9,213.7,659.5,251,669.1,272.2z"/>
			<linearGradient id="SVGID_2_" gradientUnits="userSpaceOnUse" x1="384.1692" y1="168.4459" x2="387.6388" y2="262.6235">
				<stop  offset="0" style="stop-color:#000000"/>
				<stop  offset="1" style="stop-color:#000000;stop-opacity:0"/>
			</linearGradient>
			<path class="st2" d="M669.1,272.2h-10.5l-460.6,0.1c0,0-4.7-3.7-11.9-10c-3.1-2.7-6.7-5.9-10.6-9.5c-1.4-1.3-2.9-2.7-4.4-4.1
				c-13.7-12.9-30.3-30-43.8-48.1c-14.2-19.1-25-39.5-25.3-57.5c5.7-3,19.1-9.1,30.2-6.3c14.5,3.6,17.6,20.9,17.6,20.9
				s10.4-8.4,21.3-4.4c10.9,4,12.6,15.6,12.6,15.6s12.9-6.6,24.4-3.8c11.6,2.8,20.9,14,8.5,21.3c-12.3,7.2-26.1,1.6-26.5,1.5
				c0.2,0.2,5,6.8-3.8,14.8c-9,8.2,25.5,15.3,25.5,15.3s1.3-22.4,24.4-19.9c23.1,2.5,41.8,15,41.8,15s1.2-34.3,19.7-40.6
				c18.5-6.3,28,13.9,28,13.9s41-26.5,54.9-1.8c13.9,24.7,14.5,29.4,14.5,29.4s11.9-65,49.1-62c37.2,3,44.1,28.8,43.5,31.4
				c-0.6,2.6,10.7-16.7,21.9-6.2c11.2,10.5,17.7,25.1,17.7,25.1l58.9-6.9c0,0-6-11.6-3.6-21.1C627.9,213.7,659.5,251,669.1,272.2z"
				/>
			<linearGradient id="SVGID_3_" gradientUnits="userSpaceOnUse" x1="401.5447" y1="84.6967" x2="402.2057" y2="107.828">
				<stop  offset="0" style="stop-color:#FFFFFF"/>
				<stop  offset="1" style="stop-color:#FFFFFF;stop-opacity:0"/>
			</linearGradient>
			<path class="st3" d="M489.1,104.1H315.1c21.8,0,26.1-7.9,39-12.2c0.6-0.2,1.2-0.4,1.8-0.5c12.1-3.1,22,3.8,29.7,3.5
				c8.1-0.3,17-8.9,26.3-11.9c3.1-1,6.4-0.7,9.7,0.1c6.5,1.5,13.3,4.8,20.2,3.5c6-1.1,6.5-3.6,8.9-5.3c0,0,0,0,0,0
				C463.9,88.5,476.7,96.2,489.1,104.1z"/>
			<linearGradient id="SVGID_4_" gradientUnits="userSpaceOnUse" x1="187.3457" y1="46.6687" x2="189.3285" y2="97.5579">
				<stop  offset="0" style="stop-color:#FFFFFF"/>
				<stop  offset="1" style="stop-color:#FFFFFF;stop-opacity:0"/>
			</linearGradient>
			<path class="st4" d="M263.8,88.2H114.2c4.9-10,11.4-19.6,20-28.3c0.1-0.1,0.3-0.3,0.4-0.4c3.5-0.7,7.3-1.2,11.4-1.4
				c23.7-1,28.7,16.9,28.7,16.9s6.2-8.3,17.4-4.3c11.2,4,7.3,8.9,16.2,11.6c1.2,0.3,2.4,0.4,3.7,0.3c8.5-0.7,19.2-10,28.7-6.6
				C251.6,80,244.5,88.2,263.8,88.2z"/>
			<path class="st0" d="M689.1,279.1H132.7c-1.9,0-3.4-1.5-3.4-3.4l0,0c0-1.9,1.5-3.4,3.4-3.4h556.3c1.9,0,3.4,1.5,3.4,3.4l0,0
				C692.4,277.6,690.9,279.1,689.1,279.1z"/>
			<path class="st5" d="M421.6,83c-9.9,2.5-21.1,13.3-28.4,14.9c-9.1,2-19.7-2.6-30-5.2c-3.1-0.8-5.5-1.2-7.4-1.4
				c12.1-3.1,22,3.8,29.7,3.5c8.1-0.3,17-8.9,26.3-11.9C415,81.9,418.3,82.3,421.6,83z"/>
			<path class="st5" d="M212,82.6c-8.9,4.7-13.1-5.9-20.8-9.4c-8.9-4-15.2,8.5-17.8,6.3c-2.6-2.1-3.8-11.4-13.9-16.2
				c-5.7-2.7-16.8-3.3-25.2-3.3c0.1-0.1,0.3-0.3,0.4-0.4c3.5-0.7,7.3-1.2,11.4-1.4c23.7-1,28.7,16.9,28.7,16.9s6.2-8.3,17.4-4.3
				c11.2,4,7.3,8.9,16.2,11.6C209.5,82.6,210.7,82.7,212,82.6z"/>
			<linearGradient id="SVGID_5_" gradientUnits="userSpaceOnUse" x1="512.9965" y1="249.7588" x2="491.1868" y2="61.8984">
				<stop  offset="0" style="stop-color:#E8D197"/>
				<stop  offset="1" style="stop-color:#FEF5DA"/>
			</linearGradient>
			<path class="st6" d="M452.2,60.9c0,0,62.5,55.8,87.2,48.2C564.2,101.5,408.5,27.7,452.2,60.9z"/>
			<linearGradient id="SVGID_6_" gradientUnits="userSpaceOnUse" x1="117.3204" y1="451.0177" x2="80.564" y2="134.4115">
				<stop  offset="0" style="stop-color:#E8D197"/>
				<stop  offset="1" style="stop-color:#FEF5DA"/>
			</linearGradient>
			<path class="st7" d="M92.3,117.6c0,0-21.3,37.4,15.9,76.8c8.6,9.1,9.6,26.1-7.6,27c-17.2,0.9-43.9-41-43-74.7
				C58.6,112.9,98,97.7,92.3,117.6z"/>
			<path class="st0" d="M518.2,316.2c0,0-36,7.9-45.2,20.2c-4.5,6,13.4,5.1,28.7-1.5C517.7,328.1,530.9,315.4,518.2,316.2z"/>
			<path class="st0" d="M257.4,313.9c0,0,14-0.3,26.3,4.5s15,19.5,2.7,21.3c-12.2,1.8-40.1-14.5-38.5-21.1
				C249.1,313.7,257.4,313.9,257.4,313.9z"/>
		</g>
		<path d="M193.5,234.2l-7.9,27.4c-3.1-2.7-6.7-5.9-10.6-9.5l-1.7-3.2c0,0,3-35.2-6.9-49.3c9.5,6.6,14.1,33.3,14.1,33.3l-1.5,2h1.5
			c0,0,2.4,4.5,3.3,11.1c6.1-31.6,0.2-46.9,0-47.4c0.2,0.3,5,6.1,7.8,15.7c2.9,9.8,1.8,15.9,1.8,15.9l-2.4,3.9H193.5z"/>
		<g>
			<g>
				<path class="st8" d="M433.3,261.2c0,0,2.6-2.3,4.5-4.8c0.3-0.4,0.7-0.9,0.9-1.3l1.2,1.4l-0.4-2.2c0,0,8.1-2.8,11-10.6
					c-1.8,8.5-5.2,14.9-9.2,17.8c-1.8,1.3-3.6,1.9-5.5,1.8C429.5,263,433.3,261.2,433.3,261.2z"/>
				<g class="st9">
					<path class="st10" d="M450.5,243.7c-0.7,2.2-1.5,4.4-2.5,6.5c-1,2.1-2.1,4.1-3.4,6c-1.3,1.9-2.9,3.7-4.8,5
						c-1.9,1.4-4.3,2.1-6.6,2c-0.1,0-0.2-0.1-0.2-0.2c0-0.1,0.1-0.2,0.2-0.2c0,0,0,0,0,0c2.3,0.2,4.5-0.5,6.4-1.8
						c1.9-1.3,3.5-3,4.8-4.9c1.4-1.9,2.5-3.9,3.5-6C448.9,248,449.8,245.9,450.5,243.7z"/>
				</g>
				<path class="st9" d="M433.3,261.2c0,0,2.6-2.3,4.5-4.8c0.8,2.4,2.5,4.2,3.5,5.1c-1.8,1.3-3.6,1.9-5.5,1.8
					C429.5,263,433.3,261.2,433.3,261.2z"/>
			</g>
			<path d="M370.7,245.7c0,0-18.6-17.5-15.6-40.8c1.9,10.8,9.8,23.7,9.8,23.7l-1,2.9l3.5-0.7c0,0,4.4-26.6-5.5-39.5
				c13.4,13.8,13.2,34.3,13.2,34.3l-2.5,3.8l2.5,1.1c0,0-2.9,10,5.8,6.1c8.7-3.8,14.2-36.9,6.3-45.3c9.4,8.1,7.9,36,7.9,36.9
				c0,0.9-4.1,4.7-4.1,4.7l3.1,2.3C394.2,235.3,392.2,254.2,370.7,245.7z"/>
			<path d="M456,270.6c0,0-6.5-6.1-5.4-14.2c0.7,3.8,3.4,8.2,3.4,8.2l-0.3,1l1.2-0.2c0,0,1.5-9.3-1.9-13.7
				c4.6,4.8,4.6,11.9,4.6,11.9l-0.9,1.3l0.9,0.4c0,0-1,3.5,2,2.1c3-1.3,4.9-12.8,2.2-15.7c3.3,2.8,2.7,12.5,2.7,12.8
				c0,0.3-1.4,1.6-1.4,1.6l1.1,0.8C464.2,266.9,463.5,273.5,456,270.6z"/>
			<g>
				<path class="st11" d="M431.3,261.7L426,262c3.8-3.4,3.2-6.7,2.7-8.2c-0.2-0.5-0.4-0.9-0.4-0.9l2.5-0.4l-1.4-1.9
					c0,0,4.5-5.2,6.2-19c5.3,9.3,3.2,17.7,0.4,23.2C433.9,259.1,431.3,261.7,431.3,261.7z"/>
				<g class="st9">
					<path class="st10" d="M435.6,231.7c0.6,2.6,0.9,5.2,1,7.8c0.1,2.6,0.1,5.3-0.3,7.9c-0.4,2.6-1,5.2-2,7.6
						c-1,2.4-2.5,4.7-4.3,6.7c-0.1,0.1-0.2,0.1-0.3,0c-0.1-0.1-0.1-0.2,0-0.3c0,0,0,0,0,0l0,0c1.8-1.9,3.2-4.1,4.3-6.5
						c1-2.4,1.7-5,2.1-7.5c0.4-2.6,0.5-5.2,0.4-7.8C436.4,236.9,436.1,234.2,435.6,231.7z"/>
				</g>
				<path class="st9" d="M431.3,261.7L426,262c3.8-3.4,3.2-6.7,2.7-8.2c2.8,1.7,5.6,1.5,7.3,1C433.9,259.1,431.3,261.7,431.3,261.7z
					"/>
			</g>
			<path class="st12" d="M465.6,271.6h-85.3l13.7-11.1c0,0,18.2-9.4,25.8-7.4c7.6,1.9,6.4,8.3,6.4,8.3s0.5-0.5,1.2-1.1
				c1.7-1.3,4.9-3.1,8.1-1.2c4.6,2.8,3.9,6.4,3.9,6.6c0.1-0.1,2.9-2.8,5.2-2c2.3,0.9,3.2,3.4,3.2,3.4s3-4.1,5.5-2.6
				c2.5,1.5,4,4.6,4,4.6S461.3,265.1,465.6,271.6z"/>
			<path class="st9" d="M449.1,271.6h-68.8l13.7-11.1c0,0,18.2-9.4,25.8-7.4c7.6,1.9,6.4,8.3,6.4,8.3s0.5-0.5,1.2-1.1
				c0.2,1.4,0.2,2.8,0,4.2c0,0,3.9-1.5,6.4,0.6c2.5,2.1,1.8,4,1.8,4s3.4-2,7.3,0C444.1,269.8,446.5,270.7,449.1,271.6z"/>
		</g>
		<g>
			<linearGradient id="SVGID_7_" gradientUnits="userSpaceOnUse" x1="254.5549" y1="263.2798" x2="253.233" y2="168.9908">
				<stop  offset="0" style="stop-color:#2F1829"/>
				<stop  offset="1" style="stop-color:#3B223C"/>
			</linearGradient>
			<path class="st13" d="M294.6,211.6V118H259v0.3l-42.8,68.8l-18.7,30.1l2.1,21.7H259v32.6h35.5V239h15.6v-27.4H294.6z M259,211.6
				h-27.6l25.4-43.7l2.2-3.6V211.6z"/>
			<linearGradient id="SVGID_8_" gradientUnits="userSpaceOnUse" x1="379.8804" y1="261.5229" x2="378.5585" y2="167.2345">
				<stop  offset="0" style="stop-color:#2F1829"/>
				<stop  offset="1" style="stop-color:#3B223C"/>
			</linearGradient>
			<path class="st14" d="M418.4,130.8c-9.3-11.3-22.5-17-39.6-17c-17,0-30.2,5.6-39.5,16.9c-9.3,11.3-14,27.2-14,48v28.1
				c0,20.6,4.7,36.6,14,47.9c9.4,11.3,22.6,17,39.7,17c16.9,0,30.1-5.6,39.4-16.9c9.3-11.3,14-27.2,14-48v-28
				C432.4,158.1,427.8,142.1,418.4,130.8z M361,171.8c0.2-10.3,1.7-17.9,4.5-23c2.8-5.1,7.2-7.6,13.3-7.6c6.3,0,10.8,2.7,13.7,8.2
				c2.9,5.5,4.3,13.7,4.3,24.7v38c-0.1,11-1.5,19.1-4.4,24.3c-2.9,5.2-7.4,7.8-13.4,7.8c-6.3,0-10.8-2.7-13.7-8
				c-2.7-5-4.2-12.8-4.3-23.2c0-0.6,0-1.3,0-1.9V171.8z"/>
			<linearGradient id="SVGID_9_" gradientUnits="userSpaceOnUse" x1="504.7001" y1="259.7731" x2="503.3782" y2="165.485">
				<stop  offset="0" style="stop-color:#2F1829"/>
				<stop  offset="1" style="stop-color:#3B223C"/>
			</linearGradient>
			<path class="st15" d="M544.8,211.6V118h-35.5v0.3l-61.5,98.9l2.1,21.7h59.4v32.6h35.5V239h15.6v-27.4H544.8z M509.2,211.6h-27.6
				l25.4-43.7l2.2-3.6V211.6z"/>
			<path class="st5" d="M288,118c-4.8,6.1-21.1,3.9-24.7,4.3c-4.2,0.4-33.1,51.3-37,57.8c-2.6,4.2-7.1,6.2-9.9,7.1l42.8-68.8V118
				H288z"/>
			<path class="st5" d="M544.8,118v70.8c-9.1-7.6-4.1-63.4-5.5-65.2c-1.5-2-20.5-0.7-24-1.8c-2.3-0.7-4.2-2.7-5.2-3.9H544.8z"/>
			<path class="st9" d="M386.4,253c-28.6,1.3-25.3-40-25.3-40l0,0c0.2,10.5,1.6,18.2,4.3,23.2c2.9,5.3,7.5,8,13.7,8
				c6,0,10.5-2.6,13.4-7.8c2.9-5.2,4.4-13.3,4.4-24.3v-38c0-11-1.4-19.3-4.3-24.7c-2.9-5.5-7.5-8.2-13.7-8.2c0,0,17.7-2.2,25,24.1
				C411,191.5,415,251.7,386.4,253z"/>
			<linearGradient id="SVGID_10_" gradientUnits="userSpaceOnUse" x1="338.3119" y1="93.9447" x2="349.5472" y2="129.633">
				<stop  offset="0" style="stop-color:#2F1829"/>
				<stop  offset="1" style="stop-color:#3B223C"/>
			</linearGradient>
			<path class="st16" d="M348.7,130.7c0,0-11.9-8.6-13.2-22c8.6,2.4,13.2,12.9,13.2,12.9s-2.2-9.6,0-16.1
				C355.1,114.6,353.3,122.1,348.7,130.7z"/>
		</g>
		<g>
			<linearGradient id="SVGID_11_" gradientUnits="userSpaceOnUse" x1="632.5801" y1="257.0872" x2="474.6273" y2="146.7187">
				<stop  offset="0" style="stop-color:#FFFFFF"/>
				<stop  offset="1" style="stop-color:#FFFFFF;stop-opacity:0"/>
			</linearGradient>
			<path class="st17" d="M586.3,208.5c0,0,0.1,0.3-0.3,0.7c-0.3,0.3-0.8,0.6-1.7,1c-5.4,2.1-16.5-3-22.6-6.4
				c-6-3.4-23.2-0.6-34.8-2.2c-11.6-1.6-16.5-7.8-26.9-10.4c-10.4-2.6-49.2,8.6-51.4-0.1c-2.2-8.7,41.4-93.4,45.2-87.5
				c3.7,5.9,16.6,6.3,25.7,11c9.1,4.7,16.8,28,26.9,30.3c1.4,0.3,2.7,0.8,4,1.5c8,4.3,13.8,15,14,23.8c0.2,10.2,14.2,18.4,19.3,23.9
				C588.7,199.8,586.3,208.5,586.3,208.5z"/>
			<path class="st5" d="M586.3,208.5c0,0,0.1,0.3-0.3,0.7c1.8-11.2-8.5-16.5-18-24.3c-9.7-8.1-5.6-14.2-7.6-22.5
				c-1.2-4.9-6.2-11.4-10-15.9c8,4.3,13.8,15,14,23.8c0.2,10.2,14.2,18.4,19.3,23.9C588.7,199.8,586.3,208.5,586.3,208.5z"/>
			<g>
				<linearGradient id="SVGID_12_" gradientUnits="userSpaceOnUse" x1="624.5263" y1="267.3054" x2="624.3886" y2="259.5948">
					<stop  offset="0" style="stop-color:#FECBA6"/>
					<stop  offset="1" style="stop-color:#D17878"/>
				</linearGradient>
				<path class="st18" d="M627.2,262v3.3c-0.6-0.1-2,0-3.2,0.2c-0.8,0.1-1.5,0.1-1.9,0.2l-0.3-2.8l1.3-0.2L627.2,262z"/>
				<path class="st0" d="M586.1,207l-2.6,2.4c-0.4,0.3-0.2,0.9,0.2,1.1l2.2,0.7l5,5.5c0.2,0.2,0.6,0.3,0.8,0l0.8-0.8
					c0.2-0.2,0.3-0.6,0-0.8l-5-5.5l-0.5-2.2C587.1,206.9,586.5,206.7,586.1,207z"/>
				<linearGradient id="SVGID_13_" gradientUnits="userSpaceOnUse" x1="586.9705" y1="220.8678" x2="611.5338" y2="197.5162">
					<stop  offset="0" style="stop-color:#FECBA6"/>
					<stop  offset="1" style="stop-color:#D17878"/>
				</linearGradient>
				<path class="st19" d="M606,210.5c-0.7,0.9-1.5,2-2.4,3.1c-0.3,0.4-0.7,0.8-1,1.2c-1.4,1.7-2.6,3.1-3,3.2c-1,0.2-6.6-3-7.4-3
					c-0.8,0-2.7,1.4-3.2,1.2c-0.5-0.1-3.2-2.6-3.1-3.3c0.1-0.6,2.5-2.8,3.7-3.1c0.3-0.1,1.1,0,2,0.2c0,0,0.1,0,0.1,0
					c2.3,0.5,5.7,1.6,6.2,1.3c0.3-0.1,0.8-1,1.4-2.1c0.2-0.4,0.4-0.8,0.6-1.2c0.3-0.5,0.5-1,0.8-1.5c0.2-0.5,0.4-0.9,0.6-1.2
					c0.5,0.8,1.3,1.8,2.2,2.7C604.5,209.3,605.5,210.3,606,210.5z"/>
				<linearGradient id="SVGID_14_" gradientUnits="userSpaceOnUse" x1="625.9321" y1="229.9506" x2="626.2625" y2="203.2952">
					<stop  offset="0" style="stop-color:#FECBA6"/>
					<stop  offset="1" style="stop-color:#D17878"/>
				</linearGradient>
				<path class="st20" d="M628.7,217.1c0,1.8,0,3.6-0.1,5c-0.4,5.7-0.9,10.3-2.8,10.4c-1.9,0.1-2.3-15.3-2.2-16.2
					c0-0.2,0-0.6,0.1-1.1c0.1-1.7,0.1-4.7,0.1-6c0-0.3,0-0.5,0-0.6l0.4-0.2l4.2-2.7c0,0,0.2,3.6,0.4,7.8c0,0.6,0,1.1,0,1.7
					C628.7,215.8,628.7,216.5,628.7,217.1z"/>
				<path class="st9" d="M628.7,217.1c-1,0.8-2.6,1.9-4.2,2c-2.6,0.1,1.2-5.4,2.1-5.5c0.3,0,1.1-0.1,2-0.1c0,0.6,0,1.1,0,1.7
					C628.7,215.8,628.7,216.5,628.7,217.1z"/>
				<path class="st0" d="M628.7,215.2c-1.1,0.4-2.5,0.6-4.4,0.2c-0.3-0.1-0.5-0.1-0.7-0.3c-1.6-0.9-1-3.6,0.1-6
					c0.1-0.3,0.3-0.6,0.4-0.8l4.2-2.7C628.3,205.7,628.6,210.4,628.7,215.2z"/>
				<path class="st21" d="M619.7,184.7c-0.1,0.6-0.3,1.3-0.8,2c-0.5,0.9-1.3,1.8-2,2.4c-0.6,0.4-1.1,0.7-1.5,0.7
					c-1.3-0.2-3-2.4-3.1-2.8c0-0.4,1.4-0.6,1.3-1.8c-0.2-1.2-1-1.4-1.5-1.2c-0.6,0.2-1.3,1.5-1.3,2.7c-0.4-0.1-1.1-1.5-2.5-2.4
					c-0.4-0.2-0.8-0.4-1.3-0.5c-0.6-0.1-1.3-0.1-2.1,0.2c-0.4-4.4,2.3-6.3,4.3-5.5c0,0-0.7-1.5-1.8-1.8c2.5,0.4,3.1,2.5,3.1,2.5
					s0.7-2.9,3.8-3.3c3.1-0.4,3.7,3.7,3.7,3.7s0.7-2,0.4-3.2c0.6,1.6-0.1,4.3-0.1,4.3s1.5,0.4,1.9,2.4c-1.3-1-1.3-0.9-1.3-0.9
					S619.9,182.9,619.7,184.7z"/>
				<linearGradient id="SVGID_15_" gradientUnits="userSpaceOnUse" x1="609.5874" y1="187.3867" x2="615.2877" y2="188.6259">
					<stop  offset="0" style="stop-color:#FECBA6"/>
					<stop  offset="1" style="stop-color:#D17878"/>
				</linearGradient>
				<path class="st22" d="M616.9,189.1c-0.2,0.7-0.5,1.3-0.6,1.6c-0.3,0.6-3.5,3.3-5.8,0.2c-1.9-2.6-2.2-5.6-2.2-6.5
					c1.4,0.8,2.1,2.3,2.5,2.4c0-1.2,0.7-2.4,1.3-2.7c0.6-0.2,1.3,0,1.5,1.2c0.2,1.2-1.3,1.4-1.3,1.8c0,0.4,1.7,2.6,3.1,2.8
					C615.9,189.8,616.4,189.5,616.9,189.1z"/>
				<path class="st21" d="M618.5,176.2c-0.1-0.2-0.1-0.3-0.2-0.4C618.4,175.9,618.5,176,618.5,176.2z"/>
				<path class="st11" d="M629.7,205.1c-0.3,0.6-0.7,1.1-1,1.6c-0.1,0.1-0.2,0.3-0.3,0.4c-1,1.2-1.9,1.9-1.9,1.9s0,0,0,0.1
					c0,0.1,0,0.2,0.1,0.4c0.1,0.4,0.2,1.1,0.3,2c0,0.1,0,0.3,0.1,0.4c0.1,0.4,0.1,0.8,0.1,1.2c0,0.2,0.1,0.5,0.1,0.7
					c0,0.1,0,0.3,0,0.4c0.1,0.7,0.1,1.3,0.1,2c0,0.1,0,0.3,0,0.4c0,0.8-0.1,1.5-0.2,2c0,0.2-0.1,0.3-0.1,0.4
					c-0.1,0.2-0.1,0.3-0.2,0.4c-0.1,0.1-0.3,0.2-0.5,0.3c-1.5,0.7-5.3,0.7-9.2,0.5h0c-3.3-0.2-6.6-0.5-8.3-0.8
					c-0.5-0.1-0.9-0.2-1.2-0.4c-0.2-0.1-0.4-0.3-0.5-0.4c-0.1-0.1-0.2-0.2-0.2-0.3c-0.3-0.5-0.4-1-0.4-1.7c0-0.1,0-0.3,0-0.4
					c0.1-0.6,0.2-1.2,0.3-1.9c0,0,0-0.1,0-0.1c0-0.1,0.1-0.3,0.1-0.4c0.2-0.7,0.4-1.3,0.5-2c0-0.1,0-0.2,0.1-0.3c0,0,0-0.1,0-0.1
					c0.2-0.8,0.3-1.5,0.3-2c0-0.2,0-0.3,0.1-0.4c0.1-1.3,0-1.7,0-1.7s-0.3,0.8-0.8,1.7c-0.1,0.1-0.2,0.3-0.2,0.4
					c-0.3,0.5-0.7,1-0.9,1c0,0-0.1,0-0.2,0c-0.3-0.1-0.7-0.5-1.2-1c-0.1-0.1-0.3-0.3-0.4-0.4c-0.3-0.3-0.6-0.6-0.9-1
					c-0.3-0.3-0.6-0.7-0.9-1c-0.1-0.1-0.2-0.3-0.3-0.4c-0.4-0.5-0.7-0.9-1-1.3c-0.2-0.3-0.3-0.5-0.4-0.7c-0.1-0.1-0.1-0.2-0.1-0.3
					c0,0,0-0.1,0-0.1c0.1-0.3,0.3-1.1,0.6-2c0.1-0.1,0.1-0.3,0.2-0.4c0.2-0.6,0.5-1.3,0.9-2c0.1-0.1,0.1-0.3,0.2-0.4
					c0.3-0.6,0.7-1.3,1-2c0.1-0.1,0.2-0.3,0.2-0.4c0.4-0.7,0.8-1.4,1.2-2c0.1-0.1,0.2-0.3,0.3-0.4c0.6-0.8,1.1-1.5,1.7-2
					c0.2-0.2,0.3-0.3,0.5-0.4c0.1-0.1,0.2-0.1,0.3-0.2c0.8-0.5,1.6-0.9,2.4-1.2c2.7-1,5-0.9,5-0.9c1.3,0,2.6,0.3,3.9,0.8
					c0.9,0.4,1.8,0.9,2.7,1.5c0.2,0.1,0.4,0.3,0.6,0.4c0.7,0.6,1.4,1.2,2,2c0.1,0.1,0.2,0.3,0.4,0.4c0.5,0.6,1,1.3,1.4,2
					c0.1,0.1,0.2,0.3,0.3,0.4c0.4,0.6,0.7,1.3,1.1,2c0.1,0.1,0.1,0.3,0.2,0.4c0.3,0.6,0.6,1.3,0.9,2c0.1,0.1,0.1,0.3,0.2,0.4
					c0.2,0.6,0.5,1.3,0.7,2c0,0.1,0.1,0.3,0.1,0.4c0,0,0,0,0,0C629.6,204.9,629.6,205,629.7,205.1z"/>
				<g>
					<path class="st5" d="M622.5,192.7h-15.3c0.2-0.2,0.3-0.3,0.5-0.4h14.2C622.1,192.4,622.3,192.6,622.5,192.7z"/>
					<path class="st5" d="M624.8,195.1h-19.6c0.1-0.1,0.2-0.3,0.3-0.4h19C624.6,194.8,624.7,195,624.8,195.1z"/>
					<path class="st5" d="M626.5,197.5h-22.8c0.1-0.1,0.2-0.3,0.2-0.4h22.3C626.3,197.2,626.4,197.4,626.5,197.5z"/>
					<path class="st5" d="M627.8,199.9h-25.3c0.1-0.1,0.1-0.3,0.2-0.4h24.9C627.6,199.6,627.7,199.8,627.8,199.9z"/>
					<path class="st5" d="M628.8,202.3h-27.3c0.1-0.1,0.1-0.3,0.2-0.4h27C628.7,202.1,628.7,202.2,628.8,202.3z"/>
					<path class="st5" d="M629.6,204.7h-28.7c-0.1-0.1-0.1-0.2-0.1-0.3c0,0,0-0.1,0-0.1h28.7C629.5,204.5,629.5,204.6,629.6,204.7
						C629.6,204.7,629.6,204.7,629.6,204.7z"/>
					<path class="st5" d="M628.7,206.7c-0.1,0.1-0.2,0.3-0.3,0.4h-25.7c-0.1-0.1-0.2-0.3-0.3-0.4H628.7z"/>
					<path class="st5" d="M604.4,209.1h2.9c-0.1,0.1-0.2,0.3-0.2,0.4h-2.3C604.6,209.4,604.5,209.3,604.4,209.1z"/>
					<path class="st5" d="M626.6,209.6H608c0-0.2,0-0.3,0.1-0.4h18.5C626.5,209.2,626.6,209.4,626.6,209.6z"/>
					<path class="st5" d="M627,212h-19.4c0-0.1,0-0.2,0.1-0.3c0,0,0-0.1,0-0.1h19.3C626.9,211.7,626.9,211.8,627,212z"/>
					<path class="st5" d="M627.2,214.4h-20.3c0-0.1,0.1-0.3,0.1-0.4h20.2C627.2,214.1,627.2,214.2,627.2,214.4z"/>
					<path class="st5" d="M627.3,216.4c0,0.1,0,0.3,0,0.4h-20.8c0-0.1,0-0.3,0-0.4H627.3z"/>
					<path class="st5" d="M627.1,218.8c0,0.2-0.1,0.3-0.1,0.4h-19.3c-0.2-0.1-0.4-0.3-0.5-0.4H627.1z"/>
				</g>
				<path class="st0" d="M627.6,259.2c-0.9,0.6-7,1.2-7,1.2l-0.2-1.1l-1.1-6.7c0,0,0,0,0,0l-2.7-15.7l-2.7,19.7l-0.8,5.8
					c0,0-7.5,0.4-7.5-1.4c0-0.2,0-1,0.1-2.3c0.2-8,1.1-34.3,1.3-40.2c0.3,0.6,1,1,2,1.1c0.1,0,0.2,0,0.3,0
					c3.8,0.6,14.5,1.5,17.1,0.3c0.1,1,0.2,2.5,0.3,4.4c0.4,7.6,0.7,21.4,0.9,29.1C627.5,256.9,627.6,259.2,627.6,259.2z"/>
				<path class="st9" d="M619.2,252.6l-2.7-15.7c0,0,0.7-6.3,1-7.1c0.3-0.7,2.2-0.2,3-0.7c0.4,1-2.3,2.4-2.5,5.7
					C617.9,237.2,618.7,247.2,619.2,252.6z"/>
				<path class="st23" d="M608.4,221.9c0,0-0.2,3.6,2.7,5.3"/>
				<g class="st9">
					<g>
						<line class="st24" x1="609" y1="226.7" x2="609" y2="227.4"/>
						<line class="st25" x1="608.9" y1="228.8" x2="607.5" y2="258.5"/>
						<line class="st24" x1="607.5" y1="259.2" x2="607.4" y2="259.9"/>
					</g>
				</g>
				<line class="st26" x1="619.3" y1="230.1" x2="621.9" y2="258.4"/>
				<path class="st23" d="M621.5,222.5c0,0-0.3,3.5,0,4.1c0.3,0.7,1.6,1.2,1.9,1.4c0.3,0.1,1.5-1,1.6-1.7c0.1-0.7,0.1-3.7,0.1-3.7
					S623,222.2,621.5,222.5z"/>
				<path class="st9" d="M627.6,259.2c-0.9,0.6-7,1.2-7,1.2l-0.2-1.1c1.8-1,5.3-3.2,7.1-5.9C627.5,256.9,627.6,259.2,627.6,259.2z"
					/>
				<path class="st27" d="M627.9,261.8l-0.8,0.1l-5.4,0.8l-0.4,0.1c-0.8,0.1-1.5-0.4-1.7-1.2l0-0.1c-0.1-0.8,0.4-1.5,1.2-1.7l6.6-1
					c0.8-0.1,1.5,0.4,1.7,1.2l0,0.1C629.3,261,628.7,261.7,627.9,261.8z"/>
				<path class="st9" d="M613.9,256.6l-0.8,5.8c0,0-7.5,0.4-7.5-1.4c0-0.2,0-1,0.1-2.3C607.4,258.5,611.5,258.1,613.9,256.6z"/>
				<path class="st27" d="M613.8,262.7l0,0.1c-0.1,0.8-0.8,1.4-1.6,1.3l0,0l-5.7-0.5l-0.9-0.1c-0.8-0.1-1.4-0.8-1.3-1.6l0-0.1
					c0.1-0.8,0.8-1.4,1.6-1.3l6.6,0.6C613.3,261.2,613.9,261.9,613.8,262.7z"/>
				<path class="st9" d="M626.6,224.3c-9.2,1.2-15.4-3-17.5-4.7c3.8,0.6,14.5,1.5,17.1,0.3C626.4,220.9,626.5,222.4,626.6,224.3z"/>
				<path class="st9" d="M607.6,211.7c0.7-3.3,0.4-4.2,0.4-4.2s-1.2,3-1.9,3.1c-0.3,0-1.5-1.1-2.7-2.4c1-0.3,2.5-0.8,3.3-1.7
					c1.2-1.4,1.1-7.4,1.6-7.4c0.5,0,1.6,11.1-1.5,15.4C607.1,213.6,607.4,212.6,607.6,211.7z"/>
				<path class="st9" d="M629.7,205.1c-1.4,2.6-3.2,3.9-3.2,3.9s-1.6-8.6-2.1-9.4c-0.4-0.7,0.2-1.3,1.1,1.6c0.7,2.3,2.5,4,4.1,3.6
					C629.6,204.9,629.6,205,629.7,205.1z"/>
				<path class="st9" d="M626.8,219.6c-0.1,0.1-0.3,0.2-0.5,0.3c-1.5,0.7-5.3,0.7-9.2,0.5c2.6-0.3,8.9-1.7,10-7.2
					C627.4,215.8,627.5,218.7,626.8,219.6z"/>
				<path class="st9" d="M619.2,190.7c-0.3,0.4-0.9,0.6-1.9,0.4c-1.9-0.4-4.4,0.4-5.6,0.2c-0.7-0.1-1.1-0.3-1.4-0.5
					c2.7-1,5-0.9,5-0.9C616.7,190,618,190.2,619.2,190.7z"/>
				<path class="st0" d="M606,210.5c-0.7,0.9-1.5,2-2.4,3.1c-1.9-1.1-3.4-3.1-4.3-4.3c0.8-1.4,1.6-3.1,2-3.9
					c0.5,0.8,1.3,1.8,2.2,2.7C604.5,209.3,605.5,210.3,606,210.5z"/>
				<path class="st9" d="M606,210.5c-0.7,0.9-1.5,2-2.4,3.1c-0.3,0.4-0.7,0.8-1,1.2c0.1-3.5-1.1-6.6-1.8-8.2
					c0.2-0.5,0.4-0.9,0.6-1.2c0.5,0.8,1.3,1.8,2.2,2.7C604.5,209.3,605.5,210.3,606,210.5z"/>
				<path class="st5" d="M599.9,208.2c0,1-1,2.5-1.2,2.9c-0.3,0.5-0.1,2.8-0.4,2.5c-0.3-0.3-0.4-1.4-0.8-1.8c-0.4-0.3-5-1.5-5.8-1.7
					c2.3,0.5,5.7,1.6,6.2,1.3c0.3-0.1,0.8-1,1.4-2.1C599.5,209,599.7,208.6,599.9,208.2z"/>
				<path class="st9" d="M618.9,186.7c-0.5,0.9-1.3,1.8-2,2.4c-0.6,0.4-1.1,0.7-1.5,0.7c-1.3-0.2-3-2.4-3.1-2.8
					c0-0.4,1.4-0.6,1.3-1.8c-0.2-1.2-1-1.4-1.5-1.2c-0.6,0.2-1.3,1.5-1.3,2.7c-0.4-0.1-1.1-1.5-2.5-2.4c-0.4-0.2-0.8-0.4-1.3-0.5
					c0.7-0.1,1.6-0.1,2.1,0.1c1.2,0.5,1.3,1,1.3,1s0.2-1.8,2.2-2.2C614.4,182.4,615.7,187,618.9,186.7z"/>
				<path class="st28" d="M613.1,271.6H600c0,0-0.1-0.4-0.1-0.9c0-0.7,0.2-1.6,1.3-2c0.4-0.2,0.8-0.3,1.2-0.5
					c1.6-0.8,3.4-1.8,3.7-2.4c0,0,0.1,0,0.3,0.1c0.3,0.1,0.9,0.4,1.6,0.6c0.3,0.1,0.6,0.1,0.9,0.1c0.7,0,2.2-0.4,3.1-0.5
					c0.4-0.1,0.7-0.1,0.8,0.1c0.2,0.3,0.4,3,0.5,4.5C613.1,271.2,613.1,271.6,613.1,271.6z"/>
				<linearGradient id="SVGID_16_" gradientUnits="userSpaceOnUse" x1="607.7017" y1="271.5016" x2="610.125" y2="259.8809">
					<stop  offset="0" style="stop-color:#FECBA6"/>
					<stop  offset="1" style="stop-color:#D17878"/>
				</linearGradient>
				<path class="st29" d="M612.1,264.2c-0.1,0.6-0.2,1.3-0.4,1.9c-0.7,0.1-1.6,0.3-2.3,0.4c-0.3,0-0.5,0.1-0.7,0.1
					c-0.8,0-1.9-0.5-2.4-0.7c0-0.7,0.1-1.6,0.1-2.3l2.3,0.2L612.1,264.2z"/>
				<path class="st28" d="M628.9,271.6h-7.9c0,0-0.1-0.4-0.1-0.9c0-0.4,0.1-0.8,0.3-1.3c0.6-1.3,0.3-3.3,0.5-3.7c0,0,0.1,0,0.4,0
					c1.1-0.1,4.2-0.4,5.1-0.4c0.1,0,0.1,0,0.2,0c0.5,0.2,1.1,3.6,1.4,5.4C628.8,271.1,628.9,271.5,628.9,271.6z"/>
				<path class="st9" d="M613,270.7c0,0.6,0.1,0.9,0.1,0.9H600c0,0-0.1-0.4-0.1-0.9H613z"/>
				<path class="st9" d="M628.9,271.6h-7.9c0,0-0.1-0.4-0.1-0.9h7.9C628.8,271.1,628.9,271.5,628.9,271.6z"/>
				<path class="st30" d="M607.8,266.4c-1.2,0.8-3.5,2.2-4.3,2.2c-0.6,0-1-0.3-1.3-0.5c1.6-0.8,3.4-1.8,3.7-2.4c0,0,0.1,0,0.3,0.1
					C606.6,266,607.2,266.3,607.8,266.4z"/>
				<path class="st9" d="M612.1,264.2c-0.1,0.6-0.2,1.3-0.4,1.9c-0.7,0.1-1.6,0.3-2.3,0.4l-0.8-2.7L612.1,264.2z"/>
				<path class="st9" d="M627.2,262v3.3c-0.6-0.1-2,0-3.2,0.2l-0.9-2.8L627.2,262z"/>
			</g>
		</g>
		<g>
			
				<linearGradient id="SVGID_17_" gradientUnits="userSpaceOnUse" x1="-1609.4794" y1="257.0871" x2="-1767.4333" y2="146.7176" gradientTransform="matrix(-1 0 0 1 -1476.6877 0)">
				<stop  offset="0" style="stop-color:#FFFFFF"/>
				<stop  offset="1" style="stop-color:#FFFFFF;stop-opacity:0"/>
			</linearGradient>
			<path class="st31" d="M179,208.5c0,0-2.4-8.7,2.7-14.2c5.1-5.5,19-13.7,19.3-23.9c0.2-10.2,7.9-23,18-25.4
				c10.1-2.3,17.8-25.7,26.9-30.3c9.1-4.7,22-5.1,25.7-11c3.7-5.9,47.3,78.8,45.2,87.5c-2.2,8.7-41-2.5-51.4,0.1
				c-10.4,2.6-15.3,8.8-26.9,10.4c-11.6,1.6-28.8-1.2-34.8,2.2c-6,3.4-17.1,8.4-22.6,6.4C178.9,209.3,179,208.5,179,208.5z"/>
			<g>
				<path class="st0" d="M181.1,210.2l-2.5-2.5c-0.4-0.4-1-0.2-1.1,0.3l-0.6,2.2l-5.3,5.3c-0.2,0.2-0.2,0.6,0,0.8l0.8,0.8
					c0.2,0.2,0.6,0.2,0.8,0l5.3-5.3l2.2-0.6C181.3,211.1,181.5,210.5,181.1,210.2z"/>
				<linearGradient id="SVGID_18_" gradientUnits="userSpaceOnUse" x1="152.9327" y1="184.3822" x2="151.0051" y2="195.0115">
					<stop  offset="0" style="stop-color:#FECBA6"/>
					<stop  offset="1" style="stop-color:#D17878"/>
				</linearGradient>
				<path class="st32" d="M155.6,183.9c0,0-0.1,1-0.2,2.2c-0.2,1.6-0.6,3.7-1.3,4.7c0,0,0,0.1-0.1,0.1c-1.1,1.4-3.1,1.1-4.1-0.7
					c0.6-0.8,0.9-1.7,0.5-2.1c-0.8-0.8-0.6-3.1,0.6-2.8c1.2,0.3,1.4,3.5,1.8,3.4C153.1,188.7,154.8,185.9,155.6,183.9z"/>
				<path class="st0" d="M155.9,182.5c0,0.3-0.1,0.8-0.3,1.4c-0.1,0.3-0.3,0.7-0.4,1c-0.8,1.8-2.1,3.8-2.4,3.9
					c-0.4,0.1-0.6-3.2-1.8-3.4c-1.2-0.3-1.4,2-0.6,2.8c0.4,0.4,0.1,1.3-0.5,2.1c-0.7,0.8-1.7,1.4-2.8,0.7c-2-1.2-2.4-9-2.4-9.6
					c0,0,0-0.5,0.1-1.2c0.2-1,0.9-2.2,2.6-3C150.5,175.8,155.9,176.1,155.9,182.5z"/>
				<path class="st33" d="M171.7,214.9c0,0.1,0,0.2-0.1,0.2c-0.1,0.4-0.2,0.6-0.3,0.6c-0.1,0-0.7,0-1.6-0.1c-1.2-0.2-3-0.4-4.6-0.7
					c-2-0.4-3.8-0.8-4.4-1.1c-0.5-0.3-1.3-1.3-2.1-2.5c-0.2-0.3-0.4-0.6-0.6-1c-1-1.6-1.8-3.2-2-3.6c0-0.1-0.1-0.1-0.1-0.1
					s0,0,0,0.1c0,0.4-0.2,2-0.7,3.6c-0.1,0.3-0.2,0.7-0.4,1c-0.1,0.3-0.3,0.6-0.5,0.8c-0.5,0.8-0.4,1.8-0.1,2.8
					c0,0.1,0.1,0.2,0.1,0.4l0,0c0.1,0.2,0.2,0.4,0.3,0.6c0.2,0.4,0.3,0.7,0.5,1c0.5,1,0.9,1.9,0.8,2.4c0,0.1-0.1,0.1-0.2,0.2
					c-0.1,0.1-0.1,0.1-0.2,0.2c-0.3,0.2-0.9,0.5-1.6,0.8c-3.9,1.6-12.7,3.5-16.5,0c-0.1-0.1-0.1-0.1-0.2-0.2c0,0,0,0,0,0
					c-0.2-0.3-0.3-0.5-0.3-0.8c0-0.4,0.2-0.7,0.5-1.2c0.4-0.7,1.1-1.4,1.6-2.5c0.2-0.3,0.3-0.6,0.4-1c0.2-0.5,0.4-1.1,0.4-1.8
					c0.1-0.6,0.1-1.3,0.2-1.9c0-0.3,0.1-0.7,0.1-1c0.1-1.3,0.1-2.5,0.1-3.6c0-0.3,0-0.7,0-1c0-1.3-0.1-2.5-0.1-3.6c0-0.3,0-0.7,0-1
					c0-1.3,0-2.5,0.1-3.6c0-0.3,0.1-0.7,0.1-1c0.3-1.5,0.9-2.7,2-3.6c0,0,0.1-0.1,0.1-0.1c0.4-0.3,0.8-0.6,1.1-0.9
					c0.4-0.3,0.8-0.5,1.1-0.8c2.4-1.4,3.6-1.2,3.6-1.2s0.7,0,1.8,0.2c1.1,0.2,2.4,0.5,3.8,1c0.2,0.1,0.3,0.1,0.5,0.2
					c0.4,0.2,0.7,0.3,1.1,0.5c0.2,0.1,0.5,0.3,0.7,0.4c0.3,0.2,0.6,0.4,0.8,0.6c0.7,0.5,1.2,1.1,1.7,1.8c0.3,0.5,0.7,1.2,1,1.8
					c0.2,0.3,0.3,0.6,0.5,1c0.5,1.2,1.1,2.4,1.6,3.6c0.1,0.3,0.3,0.7,0.4,1c0.5,1.3,1,2.6,1.3,3.6c0.1,0.3,0.2,0.7,0.3,1
					c0.4,1.1,0.6,1.8,0.7,2.1c0.1,0.4,1,0.8,2.1,1.2c0.4,0.1,0.7,0.2,1.1,0.3c0.8,0.2,1.5,0.4,2.2,0.6c0.5,0.1,1,0.3,1.4,0.4
					c0.4,0.1,0.6,0.2,0.7,0.3c0,0,0,0.1,0.1,0.2C172,212.3,171.9,213.9,171.7,214.9z"/>
				<g class="st9">
					<g>
						<path class="st10" d="M155.3,192c0.3,0.2,0.6,0.3,0.9,0.5h-13.3c0.2-0.2,0.5-0.4,0.7-0.5H155.3 M155.4,191.7h-11.9
							c-0.4,0.3-0.7,0.5-1.1,0.9c0,0-0.1,0.1-0.1,0.1h14.7C156.4,192.4,155.9,192,155.4,191.7L155.4,191.7z"/>
					</g>
					<g>
						<path class="st10" d="M159.4,196.6c0.1,0.2,0.2,0.3,0.3,0.5h-19.3c0-0.2,0.1-0.4,0.1-0.5H159.4 M159.5,196.4h-19.3
							c-0.1,0.3-0.1,0.6-0.1,1H160C159.8,197,159.7,196.7,159.5,196.4L159.5,196.4z"/>
					</g>
					<g>
						<path class="st10" d="M161.4,201.2c0.1,0.2,0.1,0.3,0.2,0.5h-21.3c0-0.2,0-0.3,0-0.5H161.4 M161.6,201H140c0,0.3,0,0.6,0,1
							h21.9C161.8,201.7,161.7,201.3,161.6,201L161.6,201z"/>
					</g>
					<g>
						<path class="st10" d="M163.1,205.9l0.1,0.4l0.1,0.2h-22.8c0-0.2,0-0.3,0-0.5H163.1 M163.3,205.6h-23.1c0,0.3,0,0.6,0,1h23.4
							C163.5,206.3,163.4,206,163.3,205.6L163.3,205.6z"/>
					</g>
					<g>
						<path class="st10" d="M154.9,210.5c-0.1,0.2-0.1,0.4-0.2,0.5h-14.3c0-0.2,0-0.3,0-0.5H154.9 M155.2,210.3h-15
							c0,0.3,0,0.6-0.1,1h14.7C154.9,210.9,155.1,210.6,155.2,210.3L155.2,210.3z"/>
					</g>
					<g>
						<path class="st10" d="M167.5,210.5c0.6,0.2,1.2,0.3,1.7,0.5l0.2,0.1h-10.6c-0.1-0.2-0.2-0.3-0.3-0.5H167.5 M167.5,210.3H158
							c0.2,0.3,0.4,0.7,0.6,1h12.4c-0.4-0.1-0.8-0.3-1.4-0.4C169,210.7,168.2,210.5,167.5,210.3L167.5,210.3z"/>
					</g>
					<g>
						<path class="st10" d="M154.1,215.1c0,0,0,0.1,0.1,0.1l0,0.1c0,0,0,0,0,0c0,0.1,0.1,0.2,0.1,0.3h-14.9c0.1-0.2,0.2-0.3,0.2-0.5
							H154.1 M154.3,214.9h-14.8c-0.1,0.4-0.3,0.7-0.4,1h15.6c-0.1-0.2-0.2-0.4-0.3-0.6l0,0C154.4,215.1,154.3,215,154.3,214.9
							L154.3,214.9z"/>
					</g>
					<g>
						<path class="st10" d="M171.4,215.1c-0.1,0.3-0.2,0.4-0.2,0.4c0,0,0,0-0.1,0c-0.2,0-0.7,0-1.4-0.1c-0.6-0.1-1.2-0.2-1.9-0.3
							H171.4 M171.2,215.5L171.2,215.5L171.2,215.5 M171.7,214.9h-6.6c1.6,0.3,3.4,0.6,4.6,0.7c0.7,0.1,1.2,0.1,1.4,0.1
							c0.1,0,0.1,0,0.2,0c0.1,0,0.2-0.3,0.3-0.6C171.6,215,171.7,215,171.7,214.9L171.7,214.9z"/>
					</g>
					<g>
						<path class="st10" d="M155,219.7c-0.3,0.2-0.7,0.3-1.1,0.5h-16.3c0,0-0.1-0.1-0.1-0.1l0,0c-0.1-0.1-0.2-0.2-0.2-0.4H155
							 M155.7,219.5h-18.8c0,0.3,0.1,0.5,0.3,0.8c0,0,0,0,0,0c0.1,0.1,0.1,0.1,0.2,0.2H154c0.7-0.3,1.2-0.6,1.6-0.8
							C155.6,219.6,155.7,219.6,155.7,219.5L155.7,219.5z"/>
					</g>
				</g>
				<path class="st0" d="M157.2,262.8c-0.1,0.2-0.1,0.4-0.2,0.5c-1.1,1.9-4.1,2.1-5.2,1.7c-0.1,0-0.3-0.1-0.3-0.2
					c-0.7-0.6-1.2-5.4-4.8-32.6c0,0.1,0,0.1,0,0.2v0c-0.1,3.9-0.9,10.7-1.7,17c-0.9,7-1.9,13.3-2.1,14.3c0,0.3-0.2,0.6-0.4,0.9
					c-1,1.1-3.5,1.4-5-0.4c-0.1-0.1-0.2-0.3-0.3-0.5c0.6-5,0.9-20.4-0.1-29.6c-0.4-3.4-0.4-6.4-0.3-8.8c0.1-2.5,0.4-4.3,0.6-5.3
					c3.8,3.8,13,1.8,16.9,0.1c0.6-0.3,1-0.5,1.3-0.7C156.6,224.1,156.2,237,157.2,262.8z"/>
				<path class="st9" d="M154.3,191.2c-6.4,0.2-8.2,10.1-8.2,10.1l-1.5-10.4c2.4-1.4,3.6-1.2,3.6-1.2S151.3,190,154.3,191.2z"/>
				<path class="st28" d="M164.5,271.5c0,0-10.9,0-12.7,0c-0.1-0.4-0.1-0.9-0.1-1.5c0-0.2,0-0.4,0-0.7c0-1.5,0-3.3,0.1-4.2
					c0.3,0.1,0.7,0.2,1.2,0.1c1,0,2.2-0.3,3.1-0.9c0.3-0.2,0.6-0.6,0.8-0.9c0.8,1.7,2.4,2.8,3.9,3.6c1.3,0.7,2.6,1.2,3.1,1.6
					c0.5,0.4,0.7,0.9,0.7,1.4C164.7,270.8,164.5,271.5,164.5,271.5z"/>
				<path class="st28" d="M142.5,270c0,1-0.1,1.5-0.1,1.5h-7.3c0.1-0.5,0.2-1,0.3-1.5c0.6-2.5,1.5-4.7,1.9-5.6
					c0.5,0.6,1.1,0.9,1.7,1.1c0.7,0.2,1.4,0.2,2.1,0c0.5-0.2,1-0.4,1.3-0.8C142.6,266.9,142.6,268.8,142.5,270z"/>
				<linearGradient id="SVGID_19_" gradientUnits="userSpaceOnUse" x1="181.5112" y1="211.5054" x2="170.3585" y2="214.6859">
					<stop  offset="0" style="stop-color:#FECBA6"/>
					<stop  offset="1" style="stop-color:#D17878"/>
				</linearGradient>
				<path class="st34" d="M178.5,213.2c-0.1,0.8-3,3.3-3.9,3.1c-0.1,0-0.3-0.1-0.4-0.2c-0.6-0.3-1.3-0.9-2.5-1
					c0.2-1,0.3-2.8,0.2-3.4c0.2-0.1,0.4-0.2,0.6-0.3c1-0.4,2.3-1,2.8-0.9C176.1,210.7,178.6,212.4,178.5,213.2z"/>
				<path class="st9" d="M155.9,219.3c0,0.1-0.2,0.3-0.4,0.4c-2.3,1.6-13.9,5-18.2,0.6c0,0,0,0,0,0c-0.6-0.6-0.3-1.2,0.2-1.9
					c0.6,0.5,1.7,1,3.7,1.4c3.9,0.6,10.7-0.4,14-2.8C155.6,217.9,156,218.8,155.9,219.3z"/>
				<path class="st9" d="M171.6,215.1c-0.1,0.4-0.2,0.6-0.3,0.6c-0.1,0-0.7,0-1.6-0.1c0.6-2.3,0.2-4,0-4.8c1.1,0.3,1.9,0.5,2,0.7
					c0,0,0,0.1,0.1,0.2C172,212.3,171.9,214.1,171.6,215.1z"/>
				<path class="st9" d="M154.4,215.2c-1.5-1.4-0.8-2.6,0-5.4c0.8-2.9-0.8-4.1-1.1-7.3c-0.3-3.2,0.1-5,2-7.1
					c-2.4,6.2,0.6,11.1,0.6,11.1s-0.1,3.4-1.6,5.6C153.8,213,154,214.1,154.4,215.2z"/>
				<path class="st9" d="M155.1,184.9c-0.8,1.8-2.1,3.8-2.4,3.9c-0.4,0.1-0.6-3.2-1.8-3.4c-1.2-0.3-1.4,2-0.6,2.8
					c0.4,0.4,0.1,1.3-0.5,2.1c-0.7,0.8-1.7,1.4-2.8,0.7c-2-1.2-2.4-9-2.4-9.6c0,0,0-0.5,0.1-1.2c1-0.1,3.3,0.1,3.8,2.1
					c0.5,2,0.5,2.9,0.5,3.3c0.1-0.6,0.6-2.3,2.5-1.9C152.7,183.9,153.9,184.7,155.1,184.9z"/>
				<path class="st0" d="M146.9,182.2c0,0-0.8-1.7-3.5-1.2c-2.6,0.5-3.8,3.9-2.6,9.4c0-4.9,0.7-6,0.7-6s-1.1,3,0.3,9.7
					c1.4,6.7,2.3,13.2-1.3,16c7.1-4,7.6-8.8,7.1-14.6C147.3,189.6,148.5,184.6,146.9,182.2z"/>
				<path class="st9" d="M151.2,188.1c-0.1,0.4,1.3,2.3,2.8,2.7c0,0,0,0.1-0.1,0.1c0,0.1-0.1,0.1-0.1,0.2c-1.4-0.5-2.8-0.9-3.8-1
					c0.5-0.7,0.7-1.5,0.3-1.9c-0.8-0.8-0.6-3.1,0.6-2.8c1.2,0.3,1.4,3.5,1.8,3.4c0.3-0.1,2.1-2.9,2.8-4.9c0,0-0.1,1-0.2,2.2
					c-0.4,0.7-1.3,2.2-2,2.8c-0.9,0.8-1.3-0.2-1.5-0.8C151.6,187.5,151.2,187.6,151.2,188.1z"/>
				<path class="st35" d="M138.8,225.5c0,0-0.2,3.7,0.3,4.7c0.5,1,1.9,1.7,1.9,1.7s1.8-0.8,2.3-1.9c0.5-2.2,0.4-4.9,0.4-4.9
					S140,224.2,138.8,225.5z"/>
				<path class="st23" d="M154.4,222.5c0,0,0.2,3.1-2.5,4.6"/>
				<line class="st23" x1="153.8" y1="225.1" x2="155.9" y2="262.2"/>
				<path class="st9" d="M146.6,232.6L146.6,232.6c-0.1,3.9-0.9,10.7-1.7,17.1c-0.1-7.4-1.2-16.5-0.8-18
					C145.1,232.7,146.6,232.6,146.6,232.6z"/>
				<line class="st23" x1="144.6" y1="233.5" x2="141.6" y2="263.7"/>
				<path class="st9" d="M154.2,220.4c-1.8,1.8-7.4,6.2-17.5,5.2c0.1-2.5,0.4-4.3,0.6-5.3C141.1,224.1,150.3,222.1,154.2,220.4z"/>
				<path class="st9" d="M135.5,270h7c0,1-0.1,1.5-0.1,1.5h-7.3C135.3,271,135.4,270.5,135.5,270z"/>
				<path class="st9" d="M164.5,271.5c0,0-10.9,0-12.7,0c-0.1-0.4-0.1-0.9-0.1-1.5h13C164.7,270.8,164.5,271.5,164.5,271.5z"/>
				<path class="st5" d="M160.8,267C160.8,267,160.8,267,160.8,267c-2.3,1.1-3.9-1.2-4.7-2.7c0.3-0.2,0.6-0.6,0.8-0.9
					C157.7,265,159.3,266.2,160.8,267z"/>
				<path class="st9" d="M141.1,265.6c-0.2,3.4-1.4,3.5-2,3.1c-0.6-0.3-0.2-2.5,0-3.2C139.7,265.8,140.5,265.7,141.1,265.6z"/>
				<path class="st9" d="M151.7,269.3c0-1.5,0-3.3,0.1-4.2c0.3,0.1,0.7,0.2,1.2,0.1C153.1,266.3,153.2,268.8,151.7,269.3z"/>
				<path class="st9" d="M171.6,215.1c0.2-1,0.3-2.8,0.2-3.4c0.2-0.1,0.4-0.2,0.6-0.3c0.6,0.9,1.7,2.6,1.8,4.6
					C173.6,215.7,172.9,215.2,171.6,215.1z"/>
				<path class="st5" d="M166.4,209.9c-2,0.2-3.4,2.3-3.5,1.9c-0.2-0.5,0.9-1.5,0.8-2.2c-0.1-0.7-3.2-8.6-4.9-12.5c-1-2.4-2-4-2.6-5
					c0.3,0.2,0.6,0.4,0.8,0.6c0.7,0.5,1.2,1.1,1.7,1.8c0.3,0.5,0.7,1.2,1,1.8c0.2,0.3,0.3,0.6,0.5,1c0.5,1.2,1.1,2.4,1.6,3.6
					c0.1,0.3,0.3,0.7,0.4,1c0.5,1.3,1,2.6,1.3,3.6c0.1,0.3,0.2,0.7,0.3,1c0.4,1.1,0.6,1.8,0.7,2.1
					C164.4,209.2,165.3,209.6,166.4,209.9z"/>
			</g>
		</g>
		<path class="st0" d="M649.6,273.6c-0.7-0.5-21.5-56.7,2.5-88.7c-3.3,22.6-1.5,41.1-1.5,41.1l-3.1,3.1l3.5,1c0,0,2.3,31.4,3.5,35
			c-2.6-23.5,3.8-37.2,3.8-37.2s-1.1,16.7,1,22.8l-1.7,2.2l1.7-0.3c0,0-1.2,10.1,0,13.1c0,0,13.4-40,7.1-57.6
			c8.3,12.8,5.9,34.3,5.9,34.3l-2.1,0.8l1.3,1c0,0-3.5,22.9-11.4,29.3"/>
		<g>
			<path d="M509.4,267c0,0-18.6-1.7-26,3.5c3.5-5,17.6-7.3,17.6-7.3l1,0.8l0-0.8c0,0,2.4-1.2,5.9-1.7c-16.9-3.3-25-0.1-25-0.1
				s3.1-2.6,8.3-4.1c5.2-1.5,8.4-0.9,8.4-0.9l2.1,1.3l0-1.4l18,5.3"/>
			<path class="st36" d="M580.8,268c0,0-2-12.6,8.3-21.3C588.9,256.8,586.1,265.5,580.8,268z"/>
			<g>
				<path class="st11" d="M511.7,259.7l-2,4.9c-1.4-4.9-4.5-5.9-6.1-6c-0.6-0.1-0.9,0-0.9,0l0.7-2.4l-2.3,0.4c0,0-2.6-6.3-14.3-14
					c10.7-0.6,17.3,5,21,10C510.6,256.3,511.7,259.7,511.7,259.7z"/>
				<g class="st9">
					<path class="st10" d="M486.8,242.5c2.5,0.6,5,1.5,7.4,2.6c2.4,1.1,4.7,2.3,6.9,3.7c2.2,1.5,4.2,3.2,6,5.2
						c1.7,2,3.1,4.3,4.1,6.8c0,0.1,0,0.3-0.1,0.3c-0.1,0-0.3,0-0.3-0.1c0,0,0,0,0,0l0,0c-0.9-2.4-2.2-4.7-3.9-6.7
						c-1.7-2-3.7-3.7-5.8-5.2c-2.2-1.5-4.5-2.7-6.9-3.8C491.8,244.1,489.3,243.2,486.8,242.5z"/>
				</g>
				<path class="st9" d="M511.7,259.7l-2,4.9c-1.4-4.9-4.5-5.9-6.1-6c2.8-1.7,3.8-4.4,4.2-6.1C510.6,256.3,511.7,259.7,511.7,259.7z
					"/>
			</g>
			<g>
				<path class="st37" d="M589,236.3c-19.2,15.8-24.1,23.6-24.1,23.6l-3.4-1.5c0,0,0,0.1,0,0.3c0,0.9,0.1,3.3,0,4.2
					c-0.1,0.7-6.9,4.4-10.8,6.4c-1.6,0.8-2.6,1.4-2.6,1.4l-3.2-3.2l0.3-0.6l1.7-3.2c0,0,4.4-6.3,11.9-12.9
					C566.2,244.2,576.7,237.4,589,236.3z"/>
				<g class="st9">
					<path class="st10" d="M546.8,269.5c2.6-3.8,5.5-7.4,8.5-10.8c3-3.4,6.3-6.7,9.7-9.7c3.5-3,7.2-5.7,11.2-8
						c4-2.2,8.3-3.9,12.8-4.7c-4.5,0.8-8.8,2.5-12.8,4.8c-4,2.3-7.6,5-11.1,8c-3.4,3-6.6,6.3-9.6,9.7c-3,3.4-5.8,7-8.4,10.8l0,0
						c-0.1,0.1-0.2,0.1-0.3,0.1C546.8,269.7,546.7,269.6,546.8,269.5L546.8,269.5z"/>
				</g>
				<path class="st9" d="M561.5,262.9c-0.1,0.7-6.9,4.4-10.8,6.4c-2.1-0.8-4.1-1.7-5.5-2.5l1.7-3.2c0,0,4.4-6.3,11.9-12.9
					c0.4,2.3,1.3,5.6,2.8,8C561.5,259.6,561.6,262.1,561.5,262.9z"/>
			</g>
			<g>
				<path class="st8" d="M577,226c-13.7,11.4-20,21-22.6,25.8c-1.2,2.2-1.6,3.5-1.6,3.5l-3-1.1l1.2,2.7l-4.4,8.8v0l-1.9,3.9v-15.4
					c0.6-1.1,1.4-2.6,2.4-4.3c1.9-3.2,4.6-7.1,8.1-10.9c1.6-1.7,3.3-3.4,5.1-5C565,230.2,570.6,227,577,226z"/>
				<g class="st9">
					<path class="st10" d="M544.6,260.4c1.4-3.8,3.3-7.4,5.4-10.9c2.1-3.5,4.6-6.7,7.3-9.7c2.7-3,5.8-5.7,9.1-8.1l2.5-1.7l2.7-1.5
						c0.4-0.2,0.9-0.5,1.3-0.7l1.4-0.6l2.8-1.2l-2.8,1.2l-1.4,0.6c-0.4,0.2-0.9,0.5-1.3,0.7l-2.6,1.5l-2.5,1.7
						c-3.3,2.4-6.3,5.1-9,8.1c-2.7,3-5.1,6.3-7.1,9.8c-2.1,3.5-3.9,7.1-5.2,10.9l0,0c0,0.1-0.2,0.2-0.3,0.1S544.5,260.5,544.6,260.4
						L544.6,260.4z"/>
				</g>
				<path class="st9" d="M552.8,255.3l-3-1.1l1.2,2.7l-4.4,8.8v0l-1.9,0.3v-11.8c0.6-1.1,1.4-2.6,2.4-4.3c1.4,1.1,3.8,2.4,7.2,1.9
					C553.2,254,552.8,255.3,552.8,255.3z"/>
			</g>
			<path class="st12" d="M594.4,271.6h-49.7v-7c0,0,0.7-1.7,2.7-2.7c0.6-0.3,1.4-0.6,2.2-0.7c3.7-0.5,5,2.6,5,2.6s0.9-2.7,4.6-3
				c3.6-0.3,5.8,5.3,5.9,5.7c0-0.3-0.3-3.4,2.5-3.6c2.9-0.2,2.9,3.6,2.9,3.6s2.3-2.5,5.3-2.4c3,0.2,3.6,3.1,3.6,3.1s1.7-2.5,5.3-1.6
				C588.5,266.5,588.9,271.6,594.4,271.6z"/>
			<path class="st9" d="M578.9,271.6h-34.1v-7c0,0,0.7-1.7,2.7-2.7c1.5,0.1,4.1,0.6,5.2,2.6c1.6,2.9,1.7,5.6,1.7,5.6s3.3-4.8,6-4
				c2.7,0.8,4.1,4,4.1,4s2.8-3,5.2-2C570.8,268.7,575,270.2,578.9,271.6z"/>
			<path class="st0" d="M480.9,273.6c-0.2-0.1-6-15.9,0.7-24.9c-0.9,6.4-0.4,11.6-0.4,11.6l-0.9,0.9l1,0.3c0,0,0.7,8.8,1,9.9
				c-0.7-6.6,1.1-10.5,1.1-10.5s-0.3,4.7,0.3,6.4l-0.5,0.6l0.5-0.1c0,0-0.3,2.8,0,3.7c0,0,3.8-11.2,2-16.2c2.3,3.6,1.7,9.6,1.7,9.6
				l-0.6,0.2l0.4,0.3c0,0-1,6.4-3.2,8.2"/>
		</g>
		<g>
			<path d="M254.2,268.4c0,0-29.3-19.7-46.4-17.9c10.4-5.1,35.9,3.9,35.9,3.9l1,2.3l0.7-1.3c0,0,5.1,0.1,11.3,2.6
				c-25-21-41.4-23-41.4-23s7.5-1.4,17.5,0.8c10,2.2,14.8,6.2,14.8,6.2l2.3,4l1.2-2.2l25,25.2"/>
			<path class="st36" d="M231.4,270.8c0,0-12.4-2.6-20.1-11.9C224.5,260.2,230.2,265,231.4,270.8z"/>
			<g>
				<path class="st37" d="M272.7,215.1c-1.1,24.8,1.5,33.7,1.5,33.7l-3.4,1.6c0,0,0.1,0.1,0.2,0.2c0.7,0.6,2.5,2.2,3.1,2.8
					c0.5,0.5-1.3,8.1-2.4,12.3c-0.4,1.7-0.7,2.9-0.7,2.9l-4.5,0.2l-0.2-0.7l-1.3-3.4c0,0-1.8-7.5-1.7-17.4
					C263.3,237.4,265.3,225,272.7,215.1z"/>
				<g class="st9">
					<path class="st10" d="M269.2,268.7c-1.1-4.5-1.8-9-2.4-13.5c-0.5-4.6-0.8-9.1-0.7-13.7c0.1-4.6,0.5-9.2,1.5-13.6
						c1-4.5,2.6-8.8,5.1-12.7c-2.4,3.9-4,8.2-5,12.7c-1,4.5-1.4,9-1.4,13.6c-0.1,4.6,0.3,9.1,0.8,13.7c0.6,4.5,1.4,9,2.5,13.5l0,0
						c0,0.1,0,0.3-0.2,0.3C269.4,268.9,269.3,268.8,269.2,268.7L269.2,268.7z"/>
				</g>
				<path class="st9" d="M274.1,253.3c0.5,0.5-1.3,8.1-2.4,12.3c-2,1.1-4,1.9-5.5,2.5l-1.3-3.4c0,0-1.8-7.5-1.7-17.4
					c2,1.2,5,2.7,7.8,3.2C271.7,251.1,273.6,252.7,274.1,253.3z"/>
			</g>
			<g>
				<path class="st8" d="M290.2,232.2c-6.1,10.7-7.9,18.4-8.4,22.1c-0.2,1.7-0.2,2.6-0.2,2.6l-2.2,0l1.4,1.5l-0.7,6.8l0,0l-0.3,3
					l-3.7-9.9c0.1-0.9,0.3-2,0.5-3.4c0.5-2.5,1.3-5.7,2.6-9c0.6-1.5,1.3-3,2.1-4.4C283.5,237.8,286.3,234.4,290.2,232.2z"/>
				<g class="st9">
					<path class="st10" d="M277.5,262.2c0-2.8,0.3-5.6,0.9-8.4c0.5-2.7,1.3-5.4,2.4-8c1-2.6,2.4-5.1,3.9-7.4l1.2-1.7l1.4-1.6
						c0.2-0.3,0.5-0.5,0.7-0.8l0.8-0.7l1.5-1.4l-1.5,1.5l-0.7,0.7c-0.2,0.3-0.5,0.5-0.7,0.8l-1.3,1.6l-1.2,1.7
						c-1.5,2.3-2.9,4.8-3.8,7.4c-1,2.6-1.7,5.3-2.3,8c-0.5,2.7-0.8,5.5-0.8,8.3l0,0c0,0.1-0.1,0.2-0.2,0.2S277.5,262.4,277.5,262.2
						C277.5,262.2,277.5,262.2,277.5,262.2z"/>
				</g>
				<path class="st9" d="M281.6,257l-2.2,0l1.4,1.5l-0.7,6.8l0,0l-1.2,0.6l-2.8-7.6c0.1-0.9,0.3-2,0.5-3.4c1.1,0.4,3,0.7,5.1-0.5
					C281.6,256.1,281.6,257,281.6,257z"/>
			</g>
			<path class="st12" d="M311.2,271.5l-12.4,0l-54,0.1l-16,0c0,0,1.3-4.3,7.6-6.3c6.3-2,8.1,2.1,8.1,2.1s-0.3-8.2,7.1-11
				c7.4-2.8,10.7,6.6,10.7,6.6s1.5-4.6,9.4-5c7.9-0.4,7.1,5.8,7.1,5.8s4.5-5,12.6-3.9c8.1,1.1,8.9,7.6,8.9,7.6
				S307.4,265.4,311.2,271.5z"/>
			<path class="st9" d="M298.8,271.6l-54,0.1c2.8-2.5,7.4-5.7,12.2-5.8c7.9-0.1,9.2,2.8,9.2,2.8s4.9-5.2,8.7-4.3c3.9,0.9,4,5,4,5
				S291.3,266.5,298.8,271.6z"/>
			<path class="st0" d="M320.2,275c0,0-9-15.9-6.3-31.3c2.6,12.1,9.1,20.1,9.1,20.1l-2.6,2.1h2.6l5.6,10.7L321,275v0.7L320.2,275z"
				/>
		</g>
	</g>
</g>
<g id="DESIGNED_BY_FREEPIK">
</g>
</svg>
